# xmcd CD database file
#
# Track frame offsets:
#	150
#	19047
#	41574
#	58619
#	77417
#	101024
#	126639
#	156880
#	172948
#	203129
#	216600
#
# Disc length: 3210 seconds
#
# Revision: 7
# Processed by: cddbd v1.5.2PL0 Copyright (c) Steve Scherf et al.
# Submitted via: CDex 1.51
#
DISCID=960c880b
DTITLE=Eliane Elias - Dreamer
DYEAR=2004
DGENRE=Jazz
TTITLE0=Call Me
TTITLE1=Baubles, Bangles and Beads
TTITLE2=Photograph (Fotografia)
TTITLE3=Movin' Me On
TTITLE4=So Nice (Samba de Verao)
TTITLE5=That's All
TTITLE6=Tangerine
TTITLE7=Dreamer (Vivo Sonhando)
TTITLE8=Time Alone
TTITLE9=Doralice
TTITLE10=A House Is Not A Home
EXTD=Produced by Eliane Elias\nCo-Produced by STEVE RODBY and March Johnson\nExecutive Producer: David Weyner\nRecorded and mixed by Joe Ferla\n\nall songs arranged by Eliane Elias\nOrchestra arranged and conducted by Rob Mathes YEAR: 2004
EXTT0=(Tony Hatch)
EXTT1=(A. Borodin, George Forrest, Robert Wright)
EXTT2=(Antonio Carlos Jobim, Ray Gilbert)
EXTT3=(Eliane Elias, Marc Johnson)
EXTT4=(Paulo Vale, Marcos Valle, Norman Gimbel)
EXTT5=(Alan Brandt, Bob Haymes)
EXTT6=(Johnny Mercer, Victor Schertzinger)
EXTT7=(Antonio Carlos Jobim, Gene Lees)
EXTT8=(Eliane Elias)
EXTT9=(Dorival Caymmi, Antonio Almeida)
EXTT10=(Burt Bacharach, Hal David)
PLAYORDER=
